# xmcd
#
# Track frame offsets: 
#        182
#        10745
#        21245
#        35375
#        47940
#        62482
#        72690
#        84842
#        94430
#        106742
#        121082
#        133130
#        147307
#        156550
#        172625
#        183472
#
# Disc length: 2595 seconds
#
# Revision: 3
# Processed by: cddbd v1.5.2PL0 Copyright (c) Steve Scherf et al.
# Submitted via: ExactAudioCopy v0.99pb4
#
DISCID=d70a2110
DTITLE=Memphis Slim - Rockin' The Blues
DYEAR=1900
DGENRE=Blues
TTITLE0=Gotta Find My Baby
TTITLE1=The Comeback
TTITLE2=Messin' Around
TTITLE3=Sassy Mae
TTITLE4=Lend Me Your Love
TTITLE5=Guitar Cha Cha
TTITLE6=Stroll On Little Girl
TTITLE7=Rockin' The House
TTITLE8=Wish Me Well
TTITLE9=Blue And Lonesome
TTITLE10=My Gal Keeps Me Crying
TTITLE11=Slim's Blues
TTITLE12=Steppin' Out
TTITLE13=Mother Earth
TTITLE14=What's The Matter
TTITLE15=This Time I'm Through
EXTD=CD BM 21\n\nSubmitted 6/5/97\n[Jmccoy@efn.org]
EXTT0=
EXTT1=
EXTT2=
EXTT3=
EXTT4=
EXTT5=
EXTT6=
EXTT7=
EXTT8=
EXTT9=
EXTT10=
EXTT11=
EXTT12=
EXTT13=
EXTT14=
EXTT15=
PLAYORDER=
